<?xml version="1.0" encoding="UTF-8" standalone="no"?>
<!-- Created with Inkscape (http://www.inkscape.org/) -->

<svg
   xmlns:dc="http://purl.org/dc/elements/1.1/"
   xmlns:cc="http://creativecommons.org/ns#"
   xmlns:rdf="http://www.w3.org/1999/02/22-rdf-syntax-ns#"
   xmlns:svg="http://www.w3.org/2000/svg"
   xmlns="http://www.w3.org/2000/svg"
   version="1.1"
   width="64"
   height="64"
   id="svg6550">
  <defs
     id="defs6552" />
  <metadata
     id="metadata6555">
    <rdf:RDF>
      <cc:Work
         rdf:about="">
        <dc:format>image/svg+xml</dc:format>
        <dc:type
           rdf:resource="http://purl.org/dc/dcmitype/StillImage" />
        <dc:title></dc:title>
      </cc:Work>
    </rdf:RDF>
  </metadata>
  <g
     id="layer1">
    <g
       id="g7350"
       style="stroke:#46494a;stroke-opacity:1">
      <path
         d="m 23.807579,53.186096 c -1.61528,0.75179 -3.09789,0.973806 -4.315299,0.441744 C 13.956229,51.208346 17.496677,38.580915 21.326907,30.694977 25.157139,22.809038 37.742145,7.2190382 43.342454,10.764234 l 0,0 c 5.600308,3.545189 0.789532,16.758638 -3.252296,24.433922 -2.16533,4.111904 -6.333479,9.80196 -10.588246,13.827054"
         id="path7212-1"
         style="fill:none;stroke:#46494a;stroke-width:0.95171386;stroke-linecap:round;stroke-linejoin:miter;stroke-miterlimit:4;stroke-opacity:1;stroke-dasharray:none" />
      <path
         d="m 16.556506,15.566581 c 0.05819,-2.270307 0.691509,-3.999172 2.138373,-4.77722 l 0,0 c 5.8376,-3.1391543 14.988503,7.537907 19.691726,14.826672 4.703207,7.288766 10.77193,23.356209 5.946638,26.991913 C 39.50795,56.243655 30.244078,46.961009 25.253475,39.753194 22.503512,35.78148 19.020272,28.345599 17.423547,21.943995"
         id="path7183-0"
         style="fill:none;stroke:#46494a;stroke-width:0.95171386;stroke-linecap:round;stroke-linejoin:miter;stroke-miterlimit:4;stroke-opacity:1;stroke-dasharray:none" />
      <path
         d="m 53.471864,28.244743 c 1.391572,1.068656 2.197992,2.290436 2.141999,3.663462 l 0,0 C 55.343782,38.530806 41.495212,40.971273 32.827308,41.308595 24.159412,41.645919 7.2404793,38.689256 6.5677971,32.685148 5.8951148,26.681041 18.601016,23.433443 27.345554,22.807552 c 5.033268,-0.360256 13.727207,0.515193 20.148688,2.586083"
         id="path7323"
         style="fill:none;stroke:#46494a;stroke-width:0.95171386;stroke-linecap:round;stroke-linejoin:miter;stroke-miterlimit:4;stroke-opacity:1;stroke-dasharray:none" />
      <path
         d="m -55.27273,-64.727272 a 21.09091,18.90909 0 1 1 -42.18182,0 21.09091,18.90909 0 1 1 42.18182,0 z"
         transform="matrix(0.08163658,0,0,0.09105619,22.866931,24.78955)"
         id="path7149-5"
         style="fill:none;stroke:#46494a;stroke-width:8.30000019;stroke-miterlimit:4;stroke-opacity:1;stroke-dasharray:none" />
      <path
         d="m -55.27273,-64.727272 a 21.09091,18.90909 0 1 1 -42.18182,0 21.09091,18.90909 0 1 1 42.18182,0 z"
         transform="matrix(0.08163658,0,0,0.09105619,56.829641,32.741159)"
         id="path7149-0-1"
         style="fill:none;stroke:#46494a;stroke-width:8.30000019;stroke-miterlimit:4;stroke-opacity:1;stroke-dasharray:none" />
      <path
         d="m -55.27273,-64.727272 a 21.09091,18.90909 0 1 1 -42.18182,0 21.09091,18.90909 0 1 1 42.18182,0 z"
         transform="matrix(0.08163658,0,0,0.09105619,33.23473,57.365126)"
         id="path7149-7-9"
         style="fill:none;stroke:#46494a;stroke-width:8.30000019;stroke-miterlimit:4;stroke-opacity:1;stroke-dasharray:none" />
    </g>
    <g
       id="g7364">
      <path
         d="m 117.09091,69.818184 a 41.81818,37.81818 0 1 1 -83.636362,0 41.81818,37.81818 0 1 1 83.636362,0 z"
         transform="matrix(0.07029422,0,0,0.07772919,25.788136,26.646184)"
         id="path6569-6"
         style="fill:#46494a;fill-opacity:1;stroke:none" />
      <path
         d="m 117.09091,69.818184 a 41.81818,37.81818 0 1 1 -83.636362,0 41.81818,37.81818 0 1 1 83.636362,0 z"
         transform="matrix(0.11956522,0,0,0.13221154,22.079373,22.842325)"
         id="path6569-6-7"
         style="fill:none;stroke:#46494a;stroke-width:7.95358419;stroke-miterlimit:4;stroke-opacity:1;stroke-dasharray:none" />
    </g>
  </g>
</svg>
