<?xml version="1.0" encoding="UTF-8" standalone="no"?>
<!-- Created with Inkscape (http://www.inkscape.org/) -->

<svg
   xmlns:dc="http://purl.org/dc/elements/1.1/"
   xmlns:cc="http://creativecommons.org/ns#"
   xmlns:rdf="http://www.w3.org/1999/02/22-rdf-syntax-ns#"
   xmlns:svg="http://www.w3.org/2000/svg"
   xmlns="http://www.w3.org/2000/svg"
   version="1.1"
   width="64"
   height="64"
   id="svg8168">
  <defs
     id="defs8170" />
  <metadata
     id="metadata8173">
    <rdf:RDF>
      <cc:Work
         rdf:about="">
        <dc:format>image/svg+xml</dc:format>
        <dc:type
           rdf:resource="http://purl.org/dc/dcmitype/StillImage" />
        <dc:title></dc:title>
      </cc:Work>
    </rdf:RDF>
  </metadata>
  <g
     id="layer1">
    <g
       id="g8831"
       style="fill:#46494a;fill-opacity:1">
      <path
         d="m 24.5625,16.375 c -1.204438,-0.02705 -2.422555,0.06716 -2.6875,0.28125 -0.359671,0.29063 -0.501951,2.725176 -0.5625,3.84375 -0.640267,0.192696 -1.260692,0.445986 -1.84375,0.75 -0.927286,-0.802138 -2.438771,-2.133259 -2.90625,-2.1875 -0.675203,-0.07834 -3.721101,3.040143 -3.78125,3.71875 -0.03852,0.434577 1.384517,2.001855 2.21875,2.90625 -0.307364,0.575006 -0.551489,1.180447 -0.75,1.8125 -1.199433,0.04297 -3.384985,0.115709 -3.78125,0.40625 -0.5481764,0.40192 -0.6675704,4.742956 -0.25,5.28125 0.300845,0.38783 3.089922,0.589837 4.03125,0.65625 0.206895,0.665187 0.454222,1.304247 0.78125,1.90625 -0.826158,0.91136 -2.154415,2.351639 -2.21875,2.8125 -0.09397,0.673204 2.947971,3.799134 3.625,3.875 0.459306,0.05148 2.285965,-1.537216 3.125,-2.28125 0.508186,0.259042 1.042406,0.449462 1.59375,0.625 0.08065,1.184136 0.223756,3.451049 0.53125,3.84375 0.419066,0.535182 4.756437,0.528148 5.28125,0.09375 0.362631,-0.300148 0.518191,-2.832246 0.5625,-3.90625 0.609701,-0.189637 1.192883,-0.427687 1.75,-0.71875 0.932539,0.78748 2.494941,2.106922 2.96875,2.15625 0.676078,0.07039 3.697845,-3.070732 3.75,-3.75 0.03264,-0.425081 -1.354811,-1.926277 -2.21875,-2.84375 0.277654,-0.524093 0.499624,-1.084718 0.6875,-1.65625 1.183051,-0.09439 3.42337,-0.281687 3.8125,-0.59375 0.530281,-0.425251 0.471713,-4.761517 0.03125,-5.28125 -0.291118,-0.34352 -2.573336,-0.430709 -3.75,-0.46875 -0.200316,-0.673378 -0.458249,-1.327348 -0.78125,-1.9375 C 34.621393,24.813505 35.869307,23.449754 35.9375,23 36.039396,22.327949 33.082339,19.177583 32.40625,19.09375 31.960407,19.038462 30.207101,20.509285 29.3125,21.28125 28.775841,20.999017 28.210943,20.750654 27.625,20.5625 27.558144,19.358334 27.452366,17.231234 27.15625,16.84375 26.949883,16.57371 25.766938,16.402049 24.5625,16.375 z m -0.25,8.6875 c 3.120847,0 5.65625,2.535403 5.65625,5.65625 0,3.120847 -2.535403,5.625 -5.65625,5.625 -3.120847,0 -5.65625,-2.504153 -5.65625,-5.625 0,-3.120847 2.535403,-5.65625 5.65625,-5.65625 z"
         id="path8187"
         style="fill:#46494a;fill-opacity:1;stroke:#000000;stroke-width:0.07955864;stroke-linecap:butt;stroke-linejoin:round;stroke-miterlimit:4;stroke-opacity:1;stroke-dasharray:none" />
      <path
         d="m 46.357974,13.252467 c -0.659736,-0.135049 -1.339095,-0.204763 -1.506173,-0.113451 -0.226817,0.123955 -0.547963,1.448757 -0.692866,2.057925 -0.371368,0.04211 -0.737872,0.119511 -1.088868,0.228618 -0.429971,-0.533687 -1.128476,-1.4166 -1.380174,-1.493074 -0.36354,-0.110441 -2.349905,1.300809 -2.450694,1.668038 -0.06454,0.235173 0.561752,1.239147 0.930343,1.819792 -0.226416,0.285584 -0.421089,0.594217 -0.593332,0.922039 -0.663967,-0.09603 -1.873269,-0.274086 -2.120203,-0.153823 -0.34159,0.166363 -0.840368,2.542 -0.664409,2.879721 0.126768,0.24332 1.640593,0.63269 2.151691,0.763135 0.04743,0.386492 0.119703,0.762645 0.239593,1.126354 -0.545309,0.418817 -1.419544,1.078443 -1.500909,1.325495 -0.118834,0.360883 1.242328,2.383627 1.607124,2.492901 0.247483,0.07415 1.410638,-0.617389 1.946337,-0.942893 0.253655,0.193177 0.528475,0.351204 0.814199,0.502757 -0.07378,0.659318 -0.22125,1.920386 -0.09131,2.167048 0.177084,0.336159 2.563321,0.765034 2.895309,0.578472 0.229391,-0.128901 0.567578,-1.50602 0.699104,-2.092298 0.354253,-0.04346 0.698751,-0.116203 1.034206,-0.22068 0.434327,0.526151 1.161998,1.407721 1.417669,1.482122 0.364818,0.106174 2.340167,-1.319952 2.436622,-1.688343 0.06036,-0.230537 -0.552953,-1.194614 -0.936578,-1.785416 0.204997,-0.260548 0.383016,-0.546742 0.543368,-0.842339 0.660089,0.06612 1.910941,0.186627 2.156096,0.05382 0.33408,-0.180978 0.734502,-2.571749 0.544104,-2.901546 -0.125829,-0.217982 -1.372351,-0.493631 -2.015716,-0.631949 -0.04298,-0.390343 -0.119604,-0.775757 -0.236429,-1.143552 0.552394,-0.414059 1.374802,-1.039609 1.45718,-1.280169 0.123094,-0.359458 -1.188961,-2.387174 -1.552442,-2.500736 -0.239699,-0.07488 -1.350754,0.559129 -1.919799,0.894452 -0.267002,-0.208769 -0.552914,-0.40173 -0.856405,-0.563671 0.08336,-0.668958 0.237408,-1.849407 0.11321,-2.092065 -0.08656,-0.169106 -0.720047,-0.381544 -1.379782,-0.51659 z m -1.004258,4.753143 c 1.716454,0.31137 2.857953,1.958786 2.546584,3.675241 -0.311369,1.716449 -1.955669,2.840763 -3.672123,2.529395 -1.716451,-0.31137 -2.861069,-1.941601 -2.5497,-3.658051 0.311369,-1.716454 1.958788,-2.857955 3.675239,-2.546585 z"
         id="path8187-0"
         style="fill:#46494a;fill-opacity:1;stroke:#000000;stroke-width:0.04447101;stroke-linecap:butt;stroke-linejoin:round;stroke-miterlimit:4;stroke-opacity:1;stroke-dasharray:none" />
      <path
         d="m 43.385633,33.236883 c -0.664676,0.108145 -1.324482,0.284342 -1.448219,0.429055 -0.167982,0.196452 0.0025,1.548921 0.08346,2.169828 -0.33218,0.171301 -0.647275,0.373862 -0.93661,0.600551 -0.591526,-0.346113 -1.558139,-0.923264 -1.820586,-0.905328 -0.379061,0.02592 -1.734457,2.050809 -1.698203,2.429889 0.0232,0.242763 0.965342,0.958731 1.516175,1.370544 -0.110184,0.347394 -0.182508,0.705054 -0.227047,1.072683 -0.654767,0.146131 -1.848436,0.40932 -2.036534,0.609467 -0.260201,0.276869 0.117565,2.674727 0.402029,2.927901 0.204942,0.18241 1.758342,0.0086 2.282441,-0.05109 0.181646,0.344427 0.382842,0.670363 0.624127,0.96775 -0.360939,0.58523 -0.943792,1.512417 -0.932077,1.772258 0.01713,0.379559 2.008124,1.786757 2.387943,1.759298 0.257681,-0.01861 1.099268,-1.078276 1.484375,-1.572865 0.305738,0.09046 0.618773,0.140539 0.9397,0.180694 0.165273,0.642518 0.475449,1.873708 0.684544,2.058114 0.284961,0.251316 2.667892,-0.195559 2.911941,-0.487897 0.16863,-0.201988 -0.0045,-1.609416 -0.08984,-2.204175 0.315702,-0.166481 0.611882,-0.35687 0.888335,-0.57371 0.59292,0.337521 1.586319,0.903055 1.851743,0.881769 0.378739,-0.03036 1.718553,-2.065243 1.677836,-2.44387 -0.02549,-0.23694 -0.941296,-0.920228 -1.509791,-1.336195 0.09906,-0.316381 0.163785,-0.64715 0.208657,-0.980432 0.640517,-0.17271 1.852579,-0.504457 2.034557,-0.715698 0.247989,-0.287861 -0.227092,-2.664923 -0.522238,-2.905561 -0.195063,-0.159057 -1.458196,0.02613 -2.10873,0.125412 -0.178855,-0.349609 -0.387408,-0.682656 -0.62728,-0.984952 0.369252,-0.583298 0.915766,-1.460219 0.907305,-1.714352 -0.01264,-0.379741 -1.959499,-1.809032 -2.339613,-1.786049 -0.250664,0.01516 -1.063988,1.002541 -1.476778,1.518155 -0.323754,-0.10029 -0.659568,-0.179085 -1.000793,-0.222639 -0.159739,-0.654932 -0.435128,-1.8131 -0.637434,-1.995803 -0.140992,-0.127321 -0.808626,-0.100838 -1.473299,0.0073 z m 0.74993,4.799845 c 1.715098,-0.318757 3.367413,0.815639 3.68617,2.530737 0.318756,1.715093 -0.818833,3.350237 -2.533929,3.668995 -1.715095,0.318755 -3.364221,-0.798468 -3.682976,-2.513562 -0.318758,-1.715097 0.81564,-3.367415 2.530735,-3.68617 z"
         id="path8187-0-9"
         style="fill:#46494a;fill-opacity:1;stroke:#000000;stroke-width:0.04447101;stroke-linecap:butt;stroke-linejoin:round;stroke-miterlimit:4;stroke-opacity:1;stroke-dasharray:none" />
    </g>
  </g>
</svg>
