<?xml version="1.0" encoding="UTF-8" standalone="no"?>
<!-- Created with Inkscape (http://www.inkscape.org/) -->

<svg
   xmlns:dc="http://purl.org/dc/elements/1.1/"
   xmlns:cc="http://creativecommons.org/ns#"
   xmlns:rdf="http://www.w3.org/1999/02/22-rdf-syntax-ns#"
   xmlns:svg="http://www.w3.org/2000/svg"
   xmlns="http://www.w3.org/2000/svg"
   version="1.1"
   width="64"
   height="64"
   id="svg5926">
  <defs
     id="defs5928" />
  <metadata
     id="metadata5931">
    <rdf:RDF>
      <cc:Work
         rdf:about="">
        <dc:format>image/svg+xml</dc:format>
        <dc:type
           rdf:resource="http://purl.org/dc/dcmitype/StillImage" />
        <dc:title></dc:title>
      </cc:Work>
    </rdf:RDF>
  </metadata>
  <g
     id="layer1">
    <g
       transform="matrix(0.03567256,0.0396742,-0.0396742,0.03567256,-2.5926619,-129.81239)"
       id="g6521"
       style="fill:#000000">
      <g
         id="g6544">
        <path
           d="m 2702.8157,1751.3034 c -17.1135,12.2506 -35.5201,23.6501 -59,31.6562 -43.6371,15.4553 -75.3847,23.1546 -112.0938,46.5938 l 30.701,40.9367 c 2.0619,-0.8634 4.3346,-3.5452 6.3195,-4.6401 l 152.6045,158.7346 c 9.7611,-9.7644 19.2603,-19.7158 24.3125,-32.8437 l -161.3356,-136.8481 c 8.5499,-5.8584 21.7146,-10.5095 33.2391,-15.5368 l 146.9402,91.1349 c 1.2772,-14.9131 -0.4177,-29.0831 -4.625,-42.625 l -111,-58.3125 c 29.9489,-9.4745 58.0586,-21.9869 82.2813,-36.625 -6.3951,-14.6252 -17.056,-27.8286 -27.4375,-41.125 0,0 -0.7961,-0.4387 -0.9062,-0.5 z"
           id="path6487"
           style="fill:#46494a;fill-opacity:1;stroke:none" />
        <path
           d="m 2607.6281,912.89711 c -52.8312,40.44686 -75.3381,112.32449 -78.1874,136.06249 -24.9086,93.0506 33.0995,173.3104 72.125,226.2813 106.6545,129.9596 177.3706,80.8153 219.625,230.5937 12.3099,59.2814 1.8469,106.0887 -70.0626,199.0626 -18.9863,-21.0602 -39.7026,-36.3864 -60.125,-50.1563 l 81.25,-15.25 18.1876,-36.7187 -128.5,32.6874 c -15.711,-6.8996 -28.14,-16.7186 -38.1563,-29.25 l 181.8437,-67.0624 -3.5624,-36.7188 -196.1876,84.4062 c -9.9155,-12.664 -18.3003,-27.5331 -24.5624,-45.8437 l 197.8437,-91.3125 -14.9063,-20.7188 c 0,0 -151.1958,61.5399 -191.5312,76.6876 -0.7624,-4.8042 -1.4339,-9.7788 -1.9688,-14.9688 -2.0309,-12.7614 -1.0396,-28.0039 2.5626,-44.7188 l 151.3437,-48.4687 c 0,0 -28.6849,-16.3181 -31.5937,-18.5 -2.4711,-1.8531 -82.3354,20.5459 -107.5,27.6563 10.3886,-26.1579 25.6835,-54.0349 44.5,-80.4376 l -40,-37.9687 -0.8438,-0.5313 c -93.5426,124.3189 -78.1912,201.2131 -54.0938,277.125 40.2612,105.0278 118.9502,97.6484 189.125,189.2188 33.6825,51.5433 56.177,102.5449 61.0938,152.7188 -2.7368,90.0349 -42.6256,128.0637 -85.8125,161.4687 l 29.1875,40.2813 c 62.7587,-43.5874 105.4206,-104.3567 114.8125,-194.4688 -2.6747,-60.0785 -17.7271,-116.7147 -57.125,-166.5938 72.7756,-80.301 96.0702,-137.047 91.375,-224 -7.468,-96.9085 -65.2208,-163.1394 -167.625,-214.9374 -12.038,-9.8816 -24.4036,-21.1762 -36.5625,-33.7813 26.9946,-26.8529 26.2954,-28.326 64.4688,-50.1563 41.7627,-23.2612 88.9076,-44.7281 109.4062,-71.6874 l -37.6562,-36.0938 c -17.472,23.482 -40.6942,41.4579 -71.875,55.3438 -40.992,18.8472 -55.2587,25.499 -98.5,62.5312 -21.7486,-28.995 -40.7815,-62.4052 -53.2188,-99.375 30.7542,10.4299 110.8437,34.1875 110.8438,34.1875 l 32.875,-14.0313 -151.4688,-61.4374 c -1.275,-21.752 1.8862,-43.4547 9.5938,-64.6876 l 179.6562,103.9688 16.9375,-14.4375 -178.5625,-127.43754 c 9.4921,-14.65229 22.4228,-29.13163 36.6875,-42.90625 l -35.1563,-35.625 z"
           id="path6455"
           style="fill:#46494a;fill-opacity:1;stroke:none" />
      </g>
    </g>
  </g>
</svg>
