<?xml version="1.0" encoding="UTF-8" standalone="no"?>
<!-- Created with Inkscape (http://www.inkscape.org/) -->

<svg
   xmlns:dc="http://purl.org/dc/elements/1.1/"
   xmlns:cc="http://creativecommons.org/ns#"
   xmlns:rdf="http://www.w3.org/1999/02/22-rdf-syntax-ns#"
   xmlns:svg="http://www.w3.org/2000/svg"
   xmlns="http://www.w3.org/2000/svg"
   version="1.1"
   width="64"
   height="64"
   id="svg7376">
  <defs
     id="defs7378" />
  <metadata
     id="metadata7381">
    <rdf:RDF>
      <cc:Work
         rdf:about="">
        <dc:format>image/svg+xml</dc:format>
        <dc:type
           rdf:resource="http://purl.org/dc/dcmitype/StillImage" />
        <dc:title></dc:title>
      </cc:Work>
    </rdf:RDF>
  </metadata>
  <g
     id="layer1">
    <path
       d="m 26.618028,5.625 -8.555528,0 c -1.90866,0 -3.46875,1.52884 -3.46875,3.4375 l 0,5.6875 -4.9375,0 c -0.480768,0 -0.875,0.464681 -0.875,1.0625 0,0.597819 0.394232,1.09375 0.875,1.09375 l 4.9375,0 0,6.46875 -4.9375,0 c -0.480768,0 -0.875,0.464681 -0.875,1.0625 0,0.597819 0.394232,1.09375 0.875,1.09375 l 4.9375,0 0,6.46875 -4.9375,0 c -0.480768,0 -0.875,0.464681 -0.875,1.0625 0,0.597819 0.394232,1.09375 0.875,1.09375 l 4.9375,0 0,6.46875 -4.9375,0 c -0.480768,0 -0.875,0.464681 -0.875,1.0625 0,0.597819 0.394232,1.09375 0.875,1.09375 l 4.9375,0 0,2.375 c 0,1.90866 1.56009,3.4375 3.46875,3.4375 l 25.40625,0 c 1.90866,0 3.4375,-1.52884 3.4375,-3.4375 l 0,-2.375 4.75,0 c 0.480768,0 0.84375,-0.495931 0.84375,-1.09375 0,-0.597819 -0.362982,-1.0625 -0.84375,-1.0625 l -4.75,0 0,-6.46875 4.75,0 C 52.137018,34.15625 52.5,33.660319 52.5,33.0625 52.5,32.464681 52.137018,32 51.65625,32 l -4.75,0 0,-6.46875 4.75,0 c 0.480768,0 0.84375,-0.495931 0.84375,-1.09375 0,-0.597819 -0.362982,-1.0625 -0.84375,-1.0625 l -4.75,0 0,-6.46875 4.75,0 c 0.480768,0 0.84375,-0.495931 0.84375,-1.09375 0,-0.597819 -0.362982,-1.0625 -0.84375,-1.0625 l -4.75,0 0,-5.6875 c 0,-1.90866 -1.52884,-3.4375 -3.4375,-3.4375 l -8.134265,0 c 0,0 -1.002639,2.7509199 -4.521066,2.6183374 C 27.294993,8.1107549 26.618028,5.625 26.618028,5.625 z M 21.75,10 c 1.03504,0 1.875,0.824633 1.875,1.84375 0,1.019117 -0.83996,1.84375 -1.875,1.84375 -1.03504,0 -1.875,-0.824633 -1.875,-1.84375 C 19.875,10.824633 20.71496,10 21.75,10 z"
       id="path8158"
       style="fill:#46494a;fill-opacity:1;stroke:none" />
  </g>
</svg>
